<svg xmlns="http://www.w3.org/2000/svg" xmlns:xlink="http://www.w3.org/1999/xlink" width="500" zoomAndPan="magnify" viewBox="0 0 375 374.999991" height="500" preserveAspectRatio="xMidYMid meet" version="1.0"><defs><g/><clipPath id="b0c7cb2e6c"><path d="M 111.113281 127.300781 L 120.871094 127.300781 L 120.871094 246.9375 L 111.113281 246.9375 Z M 111.113281 127.300781 " clip-rule="nonzero"/></clipPath></defs><g fill="#1f2122" fill-opacity="1"><g transform="translate(86.773014, 295.847155)"><g><path d="M 6.808594 -226.898438 L 6.808594 -224.628906 C 26.320312 -224.628906 27.679688 -208.519531 27.679688 -163.820312 L 27.679688 -63.078125 C 27.679688 -18.378906 26.320312 -2.269531 6.808594 -2.269531 L 6.808594 0 L 68.070312 0 L 68.070312 -2.269531 C 48.554688 -2.269531 29.949219 -28.816406 29.949219 -94.84375 L 29.949219 -214.191406 L 173.574219 4.539062 L 175.84375 4.539062 L 175.84375 -163.820312 C 175.84375 -208.519531 177.207031 -224.628906 196.71875 -224.628906 L 196.71875 -226.898438 L 135.457031 -226.898438 L 135.457031 -224.628906 C 154.96875 -224.628906 173.574219 -198.082031 173.574219 -132.054688 L 173.574219 -33.125 L 46.515625 -226.898438 Z M 6.808594 -226.898438 "/></g></g></g><g clip-path="url(#b0c7cb2e6c)"><path fill="#ffffff" d="M 120.871094 127.300781 L 120.871094 246.9375 L 111.113281 246.9375 L 111.113281 127.300781 Z M 120.871094 127.300781 " fill-opacity="1" fill-rule="nonzero"/></g><g fill="#1f2122" fill-opacity="1"><g transform="translate(128.063443, 257.10556)"><g><path d="M -2.046875 -22.375 C -2.179688 -22.464844 -2.179688 -22.464844 -2.222656 -22.375 C -2.269531 -22.328125 -2.359375 -22.285156 -2.402344 -22.328125 C -2.625 -22.375 -3.515625 -22.953125 -4.179688 -23.488281 L -6.050781 -24.867188 C -6.714844 -25.355469 -7.339844 -25.886719 -7.472656 -26.023438 C -7.652344 -26.15625 -7.917969 -26.378906 -8.09375 -26.464844 L -8.585938 -26.867188 L -10.230469 -28.203125 L -10.765625 -28.691406 L -12.453125 -30.113281 L -14.722656 -32.160156 L -17.96875 -34.917969 L -20.816406 -37.453125 C -21.171875 -37.855469 -21.261719 -37.941406 -21.394531 -38.03125 L -21.707031 -38.34375 C -21.796875 -38.433594 -22.285156 -38.921875 -22.820312 -39.367188 L -24.019531 -40.476562 C -24.152344 -40.65625 -24.285156 -40.746094 -24.285156 -40.746094 L -25.398438 -41.8125 L -31.269531 -47.507812 L -31.761719 -47.996094 C -31.894531 -48.128906 -32.027344 -48.261719 -31.984375 -48.261719 C -31.984375 -48.308594 -32.117188 -48.484375 -32.292969 -48.707031 L -32.917969 -49.554688 C -33.183594 -49.863281 -33.183594 -49.996094 -32.871094 -50.132812 C -32.648438 -50.21875 -32.605469 -50.308594 -32.738281 -50.53125 C -32.78125 -50.664062 -33.316406 -50.53125 -33.582031 -50.308594 C -33.761719 -50.21875 -33.804688 -50.132812 -33.761719 -49.996094 L -33.671875 -49.640625 C -33.628906 -49.554688 -33.496094 -49.332031 -33.363281 -49.195312 L -32.917969 -48.574219 L -32.5625 -48.085938 L -28.066406 -43.457031 L -26.066406 -41.5 L -25.667969 -41.101562 L -24.910156 -40.390625 L -24.464844 -39.988281 C -24.375 -39.898438 -23.929688 -39.410156 -23.398438 -38.964844 C -23.21875 -38.832031 -23.085938 -38.65625 -23.085938 -38.65625 C -23.085938 -38.609375 -23.042969 -38.566406 -22.953125 -38.519531 C -22.90625 -38.519531 -22.773438 -38.433594 -22.6875 -38.300781 L -21.929688 -37.632812 L -21.351562 -37.054688 L -20.148438 -35.984375 L -18.636719 -34.605469 L -18.105469 -34.160156 L -14.277344 -30.78125 C -13.921875 -30.425781 -13.476562 -30.070312 -13.078125 -29.714844 L -11.832031 -28.644531 L -11.296875 -28.203125 L -10.097656 -27.222656 C -8.539062 -25.933594 -8.363281 -25.800781 -7.875 -25.488281 L -7.382812 -25.042969 L -7.074219 -24.820312 L -6.851562 -24.644531 C -6.714844 -24.597656 -6.582031 -24.464844 -6.582031 -24.421875 C -6.539062 -24.375 -6.449219 -24.285156 -6.359375 -24.285156 L -5.515625 -23.664062 C -5.78125 -23.664062 -6.050781 -23.753906 -6.273438 -23.976562 L -6.316406 -24.066406 C -6.359375 -24.066406 -6.496094 -24.066406 -6.628906 -24.152344 L -7.5625 -24.644531 C -8.363281 -25.042969 -9.429688 -25.667969 -11.03125 -26.644531 C -12.410156 -27.535156 -13.078125 -27.933594 -13.65625 -28.203125 L -14.277344 -28.511719 L -16.191406 -29.492188 C -17.4375 -30.113281 -18.636719 -30.824219 -21.441406 -32.515625 C -23.621094 -33.894531 -23.976562 -34.117188 -25.222656 -35.097656 C -25.621094 -35.40625 -26.066406 -35.628906 -26.332031 -35.628906 C -26.511719 -35.675781 -26.644531 -35.675781 -26.824219 -35.585938 C -27 -35.539062 -26.957031 -35.496094 -26.777344 -35.273438 C -26.199219 -34.5625 -25.933594 -34.25 -25.84375 -34.160156 C -25.753906 -34.074219 -25.621094 -33.941406 -25.53125 -33.804688 C -25.445312 -33.671875 -25.308594 -33.539062 -25.265625 -33.496094 C -25.175781 -33.496094 -25.085938 -33.363281 -25 -33.226562 C -24.867188 -33.003906 -22.996094 -31.003906 -22.730469 -30.78125 C -22.640625 -30.738281 -22.597656 -30.648438 -22.640625 -30.605469 C -22.6875 -30.558594 -22.640625 -30.558594 -22.597656 -30.558594 C -22.550781 -30.558594 -22.195312 -30.246094 -21.796875 -29.890625 L -20.015625 -28.203125 L -19.707031 -27.890625 L -19.617188 -27.757812 L -18.503906 -26.734375 C -18.238281 -26.511719 -18.015625 -26.289062 -18.015625 -26.246094 L -17.925781 -26.15625 C -17.835938 -26.109375 -17.613281 -25.933594 -17.347656 -25.710938 C -17.082031 -25.488281 -16.8125 -25.265625 -16.769531 -25.265625 C -16.726562 -25.265625 -16.726562 -25.222656 -16.726562 -25.175781 C -16.726562 -25.132812 -16.324219 -24.730469 -16.191406 -24.644531 L -15.570312 -24.109375 L -15.523438 -24.019531 L -15.300781 -23.796875 C -15.078125 -23.707031 -14.902344 -23.574219 -14.769531 -23.351562 L -14.679688 -23.308594 C -14.632812 -23.308594 -14.5 -23.21875 -14.234375 -22.953125 L -12.722656 -21.527344 L -11.519531 -20.460938 L -10.054688 -19.082031 C -9.742188 -18.726562 -9.074219 -18.148438 -8.984375 -18.148438 C -8.894531 -18.148438 -9.03125 -18.550781 -9.117188 -18.59375 C -9.339844 -18.683594 -9.875 -19.214844 -9.875 -19.304688 C -9.875 -19.347656 -10.007812 -19.484375 -10.1875 -19.570312 C -10.363281 -19.707031 -10.585938 -19.882812 -10.675781 -20.015625 L -11.121094 -20.460938 C -11.296875 -20.59375 -11.433594 -20.730469 -11.433594 -20.730469 C -11.433594 -20.773438 -11.566406 -20.90625 -11.742188 -20.996094 C -11.921875 -21.128906 -12.054688 -21.261719 -12.054688 -21.308594 C -12.054688 -21.351562 -12.765625 -22.019531 -12.855469 -22.0625 C -12.898438 -22.0625 -13.121094 -22.242188 -13.34375 -22.464844 C -13.566406 -22.6875 -13.789062 -22.90625 -13.878906 -22.953125 C -13.96875 -22.996094 -14.011719 -23.042969 -14.011719 -23.085938 C -14.011719 -23.128906 -14.144531 -23.265625 -14.367188 -23.441406 C -14.589844 -23.621094 -14.722656 -23.796875 -14.8125 -23.929688 L -14.855469 -23.929688 C -15.125 -24.019531 -15.300781 -24.199219 -15.433594 -24.375 L -15.570312 -24.597656 L -15.703125 -24.6875 C -15.703125 -24.644531 -15.746094 -24.6875 -15.792969 -24.730469 L -16.058594 -24.953125 C -16.101562 -25 -16.191406 -25.085938 -16.234375 -25.175781 C -16.234375 -25.265625 -16.324219 -25.308594 -16.371094 -25.308594 C -16.457031 -25.308594 -16.503906 -25.355469 -16.546875 -25.445312 C -16.589844 -25.488281 -16.679688 -25.621094 -16.769531 -25.667969 L -17.171875 -25.976562 L -17.480469 -26.246094 L -18.015625 -26.734375 C -18.238281 -26.957031 -18.503906 -27.179688 -18.550781 -27.179688 C -18.59375 -27.179688 -18.636719 -27.222656 -18.636719 -27.265625 C -18.636719 -27.3125 -18.816406 -27.488281 -18.992188 -27.625 C -19.214844 -27.757812 -19.394531 -27.933594 -19.394531 -27.980469 C -19.394531 -28.023438 -19.484375 -28.113281 -19.570312 -28.15625 C -19.707031 -28.246094 -19.75 -28.289062 -19.75 -28.335938 C -19.707031 -28.378906 -19.75 -28.425781 -19.839844 -28.425781 C -19.929688 -28.46875 -20.015625 -28.511719 -19.972656 -28.558594 C -19.972656 -28.601562 -20.015625 -28.691406 -20.0625 -28.691406 C -20.105469 -28.691406 -20.328125 -28.867188 -20.550781 -29.089844 C -20.773438 -29.3125 -20.996094 -29.492188 -21.085938 -29.535156 C -21.171875 -29.535156 -21.21875 -29.625 -21.21875 -29.667969 C -21.21875 -29.757812 -21.351562 -29.890625 -21.441406 -29.980469 C -21.574219 -30.070312 -21.796875 -30.246094 -21.886719 -30.425781 C -22.019531 -30.558594 -22.195312 -30.738281 -22.328125 -30.824219 L -22.730469 -31.226562 C -22.90625 -31.449219 -23.621094 -32.203125 -23.753906 -32.339844 C -23.84375 -32.382812 -24.019531 -32.605469 -24.464844 -33.183594 L -24.867188 -33.628906 C -25 -33.761719 -25.085938 -33.851562 -25 -33.851562 C -25.132812 -33.984375 -25.222656 -34.117188 -25.308594 -34.296875 C -25.398438 -34.382812 -25.445312 -34.472656 -25.488281 -34.5625 L -25.445312 -34.519531 L -24.867188 -34.074219 C -24.820312 -34.074219 -24.6875 -33.894531 -24.421875 -33.628906 L -24.242188 -33.582031 L -23.753906 -33.316406 L -23.53125 -33.183594 C -23.441406 -33.140625 -23.21875 -33.050781 -23.441406 -33.09375 C -23.21875 -33.003906 -23.042969 -32.871094 -22.90625 -32.738281 C -22.597656 -32.605469 -21.972656 -32.203125 -20.816406 -31.492188 C -18.859375 -30.246094 -16.503906 -28.867188 -16.414062 -28.914062 L -15.703125 -28.558594 C -15.65625 -28.558594 -15.523438 -28.46875 -15.347656 -28.378906 C -15.167969 -28.246094 -15.035156 -28.203125 -14.992188 -28.203125 L -14.769531 -28.113281 C -14.414062 -27.890625 -13.613281 -27.445312 -13.566406 -27.445312 L -11.433594 -26.199219 L -9.832031 -25.175781 C -9.429688 -24.953125 -9.117188 -24.730469 -9.117188 -24.730469 C -9.117188 -24.6875 -9.074219 -24.6875 -9.03125 -24.6875 C -8.941406 -24.6875 -8.09375 -24.199219 -8.140625 -24.152344 C -8.140625 -24.152344 -8.140625 -24.109375 -8.09375 -24.152344 C -8.050781 -24.152344 -7.828125 -24.066406 -7.5625 -23.929688 C -7.339844 -23.796875 -7.117188 -23.664062 -7.074219 -23.707031 C -7.027344 -23.707031 -6.984375 -23.664062 -6.984375 -23.621094 C -6.984375 -23.574219 -6.9375 -23.53125 -6.894531 -23.53125 C -6.628906 -23.488281 -4.625 -22.597656 -4.046875 -22.285156 L -3.46875 -22.0625 L -2.890625 -21.796875 C -2.625 -21.664062 -2.492188 -21.664062 -2.359375 -21.75 L -2.3125 -21.796875 C -1.957031 -21.839844 -1.777344 -22.109375 -2.046875 -22.375 Z M 4.757812 -5.515625 C 4.492188 -5.960938 3.957031 -6.671875 3.824219 -6.714844 C 3.78125 -6.761719 3.648438 -6.851562 3.558594 -6.984375 C 3.515625 -7.117188 3.335938 -7.296875 3.203125 -7.382812 C 3.113281 -7.429688 3.023438 -7.515625 3.023438 -7.5625 C 3.023438 -7.605469 2.847656 -7.785156 2.578125 -7.960938 C 2.359375 -8.140625 2.089844 -8.40625 1.957031 -8.539062 C 1.867188 -8.675781 1.734375 -8.808594 1.691406 -8.808594 C 1.644531 -8.808594 1.558594 -8.894531 1.511719 -8.941406 C 1.46875 -9.074219 0.890625 -9.652344 0.398438 -10.054688 C -0.179688 -10.585938 -0.933594 -11.253906 -1.066406 -11.433594 C -1.15625 -11.519531 -1.289062 -11.652344 -1.421875 -11.699219 C -1.511719 -11.742188 -1.644531 -11.789062 -1.644531 -11.875 C -1.601562 -11.921875 -1.734375 -12.054688 -1.867188 -12.144531 C -2 -12.234375 -2.222656 -12.410156 -2.3125 -12.5 C -2.402344 -12.632812 -2.578125 -12.722656 -2.667969 -12.722656 C -2.714844 -12.722656 -2.757812 -12.722656 -2.714844 -12.765625 C -2.667969 -12.765625 -2.757812 -12.898438 -2.9375 -13.03125 C -3.070312 -13.167969 -3.160156 -13.300781 -3.160156 -13.300781 C -3.160156 -13.34375 -3.246094 -13.433594 -3.292969 -13.433594 C -3.378906 -13.476562 -3.691406 -13.746094 -4.046875 -14.054688 L -5.203125 -15.078125 L -5.78125 -15.65625 L -6.136719 -15.925781 L -6.628906 -16.371094 C -6.9375 -16.679688 -6.984375 -16.679688 -7.785156 -17.304688 C -8.007812 -17.480469 -8.230469 -17.703125 -8.230469 -17.75 C -8.230469 -17.835938 -8.71875 -18.238281 -8.761719 -18.148438 C -8.808594 -18.148438 -8.808594 -18.058594 -8.761719 -17.96875 C -8.71875 -17.882812 -8.496094 -17.660156 -8.273438 -17.4375 L -5.558594 -15.078125 L -2.269531 -12.054688 C -0.488281 -10.496094 0.222656 -9.832031 0.3125 -9.695312 C 0.355469 -9.609375 0.578125 -9.429688 0.757812 -9.253906 C 0.980469 -9.074219 1.113281 -8.894531 1.15625 -8.851562 C 1.15625 -8.808594 1.199219 -8.761719 1.246094 -8.761719 C 1.289062 -8.761719 1.378906 -8.675781 1.421875 -8.628906 C 1.421875 -8.539062 1.511719 -8.453125 1.558594 -8.40625 L 1.914062 -8.09375 C 2.046875 -8.007812 2.179688 -7.828125 2.179688 -7.785156 C 2.222656 -7.695312 2.359375 -7.5625 2.535156 -7.429688 C 2.714844 -7.296875 2.980469 -7.027344 3.160156 -6.851562 C 3.738281 -6.136719 4.003906 -5.738281 4.09375 -5.558594 C 4.226562 -5.117188 4.226562 -5.070312 3.914062 -4.980469 C 3.558594 -4.894531 3.378906 -4.9375 3.246094 -5.070312 C 3.160156 -5.160156 3.113281 -5.160156 2.847656 -5.117188 C 2.625 -5.070312 2.535156 -5.027344 2.492188 -4.894531 C 2.445312 -4.671875 2.492188 -4.671875 3.023438 -4.539062 C 3.691406 -4.359375 4.226562 -4.402344 4.625 -4.625 C 4.980469 -4.847656 5.027344 -5.027344 4.757812 -5.515625 Z M 4.757812 -5.515625 "/></g></g></g><g fill="#1f2122" fill-opacity="1"><g transform="translate(128.063443, 222.102643)"><g><path d="M -12.144531 -0.980469 C -12.097656 -1.15625 -12.097656 -1.335938 -12.144531 -1.511719 L -12.144531 -1.644531 C -12.144531 -1.644531 -12.320312 -2.445312 -12.722656 -3.292969 L -13.878906 -5.828125 C -13.921875 -5.917969 -14.054688 -5.917969 -14.101562 -5.828125 L -14.144531 -5.78125 L -14.144531 -5.648438 L -14.101562 -5.558594 C -13.253906 -3.601562 -12.722656 -2.269531 -12.589844 -1.691406 C -12.589844 -1.691406 -12.410156 -1.113281 -12.589844 -1.066406 C -12.988281 -0.890625 -13.476562 -1.199219 -13.746094 -1.421875 C -13.96875 -1.601562 -14.5 -2.046875 -14.5 -1.511719 C -14.5 -1.421875 -14.546875 -1.289062 -14.589844 -1.289062 C -14.769531 -1.246094 -14.722656 -1.113281 -14.324219 -0.355469 C -13.96875 0.3125 -13.433594 1.15625 -12.988281 1.691406 C -12.8125 1.914062 -12.722656 2 -12.589844 2 C -12.367188 2 -12.320312 1.867188 -12.320312 1.601562 C -12.320312 1.378906 -12.765625 0.488281 -13.03125 0.132812 C -13.34375 -0.222656 -13.65625 -0.800781 -13.613281 -0.800781 L -13.300781 -0.667969 C -13.167969 -0.578125 -12.988281 -0.535156 -12.855469 -0.535156 C -12.675781 -0.488281 -12.542969 -0.488281 -12.367188 -0.621094 C -12.234375 -0.710938 -12.144531 -0.800781 -12.144531 -0.980469 Z M -12.722656 1.511719 L -12.898438 1.246094 C -13.167969 0.980469 -13.65625 0.265625 -13.921875 -0.3125 C -14.191406 -0.757812 -14.191406 -0.84375 -14.101562 -0.84375 C -14.054688 -0.84375 -13.96875 -0.710938 -13.921875 -0.578125 C -13.746094 -0.222656 -13.613281 -0.0429688 -13.523438 0.0429688 C -13.433594 0.132812 -12.988281 0.890625 -12.8125 1.246094 Z M -12.722656 1.511719 "/></g></g></g><g fill="#1f2122" fill-opacity="1"><g transform="translate(128.063443, 216.409666)"><g><path d="M -10.007812 1.691406 C -10.140625 1.15625 -11.03125 0.132812 -11.476562 -0.0429688 C -11.609375 -0.132812 -11.875 -0.222656 -12.054688 -0.265625 C -12.277344 -0.3125 -12.410156 -0.398438 -12.5 -0.535156 L -12.675781 -0.980469 C -12.855469 -1.335938 -13.03125 -1.914062 -13.210938 -2.492188 C -13.078125 -2.136719 -13.433594 -3.292969 -13.65625 -4.09375 C -13.746094 -4.449219 -13.832031 -4.539062 -13.96875 -4.402344 C -14.054688 -4.316406 -14.054688 -4.226562 -13.96875 -3.957031 C -13.878906 -3.425781 -13.253906 -1.113281 -12.945312 -0.621094 C -12.8125 -0.3125 -12.945312 -0.222656 -13.566406 -0.265625 C -14.144531 -0.355469 -14.191406 -0.355469 -14.234375 -0.578125 C -14.324219 -0.890625 -14.5 -0.980469 -14.722656 -0.800781 C -14.855469 -0.667969 -14.8125 -0.535156 -14.632812 -0.222656 C -14.414062 0.179688 -14.234375 0.222656 -13.390625 0.222656 C -12.988281 0.222656 -12.632812 0.265625 -12.542969 0.265625 C -12.5 0.3125 -12.410156 0.488281 -12.320312 0.667969 C -12.277344 0.84375 -12.1875 0.980469 -12.1875 1.023438 L -11.832031 1.511719 C -11.476562 2.136719 -11.210938 2.402344 -10.855469 2.445312 C -10.585938 2.445312 -10.496094 2.445312 -10.363281 2.3125 C -10.273438 2.222656 -10.140625 2.136719 -10.140625 2.136719 C -10.007812 2.136719 -9.917969 1.867188 -10.007812 1.691406 Z M -10.496094 1.691406 C -10.496094 1.867188 -10.675781 2.046875 -10.855469 2.046875 C -11.121094 2.046875 -11.566406 1.289062 -11.609375 1.199219 L -11.875 0.757812 L -12.054688 0.445312 L -11.832031 0.445312 C -11.566406 0.488281 -11.433594 0.578125 -10.941406 1.066406 C -10.675781 1.335938 -10.496094 1.601562 -10.496094 1.691406 Z M -10.496094 1.691406 "/></g></g></g><g fill="#1f2122" fill-opacity="1"><g transform="translate(128.063443, 212.09546)"><g><path d="M -10.007812 1.691406 C -10.140625 1.15625 -11.03125 0.132812 -11.476562 -0.0429688 C -11.609375 -0.132812 -11.875 -0.222656 -12.054688 -0.265625 C -12.277344 -0.3125 -12.410156 -0.398438 -12.5 -0.535156 L -12.675781 -0.980469 C -12.855469 -1.335938 -13.03125 -1.914062 -13.210938 -2.492188 C -13.078125 -2.136719 -13.433594 -3.292969 -13.65625 -4.09375 C -13.746094 -4.449219 -13.832031 -4.539062 -13.96875 -4.402344 C -14.054688 -4.316406 -14.054688 -4.226562 -13.96875 -3.957031 C -13.878906 -3.425781 -13.253906 -1.113281 -12.945312 -0.621094 C -12.8125 -0.3125 -12.945312 -0.222656 -13.566406 -0.265625 C -14.144531 -0.355469 -14.191406 -0.355469 -14.234375 -0.578125 C -14.324219 -0.890625 -14.5 -0.980469 -14.722656 -0.800781 C -14.855469 -0.667969 -14.8125 -0.535156 -14.632812 -0.222656 C -14.414062 0.179688 -14.234375 0.222656 -13.390625 0.222656 C -12.988281 0.222656 -12.632812 0.265625 -12.542969 0.265625 C -12.5 0.3125 -12.410156 0.488281 -12.320312 0.667969 C -12.277344 0.84375 -12.1875 0.980469 -12.1875 1.023438 L -11.832031 1.511719 C -11.476562 2.136719 -11.210938 2.402344 -10.855469 2.445312 C -10.585938 2.445312 -10.496094 2.445312 -10.363281 2.3125 C -10.273438 2.222656 -10.140625 2.136719 -10.140625 2.136719 C -10.007812 2.136719 -9.917969 1.867188 -10.007812 1.691406 Z M -10.496094 1.691406 C -10.496094 1.867188 -10.675781 2.046875 -10.855469 2.046875 C -11.121094 2.046875 -11.566406 1.289062 -11.609375 1.199219 L -11.875 0.757812 L -12.054688 0.445312 L -11.832031 0.445312 C -11.566406 0.488281 -11.433594 0.578125 -10.941406 1.066406 C -10.675781 1.335938 -10.496094 1.601562 -10.496094 1.691406 Z M -10.496094 1.691406 "/></g></g></g><g fill="#1f2122" fill-opacity="1"><g transform="translate(128.063443, 207.781254)"><g><path d="M -12.144531 0.445312 C -12.234375 -0.0429688 -12.320312 -0.355469 -12.722656 -1.15625 L -13.613281 -3.160156 L -13.878906 -3.738281 C -13.921875 -3.78125 -14.054688 -3.78125 -14.101562 -3.691406 L -14.144531 -3.648438 L -14.144531 -3.515625 L -14.101562 -3.425781 C -13.03125 -0.980469 -12.5 0.488281 -12.589844 0.757812 C -12.632812 0.84375 -12.675781 0.84375 -12.8125 0.710938 C -12.988281 0.621094 -13.03125 0.535156 -13.121094 0.222656 C -13.253906 -0.265625 -13.476562 -0.710938 -14.011719 -1.46875 C -14.5 -2.179688 -14.769531 -2.492188 -14.902344 -2.445312 C -15.167969 -2.359375 -15.125 -1.957031 -14.855469 -1.246094 C -14.546875 -0.355469 -13.746094 0.667969 -13.03125 1.113281 C -12.675781 1.335938 -12.542969 1.378906 -12.367188 1.289062 C -12.054688 1.246094 -12.054688 1.15625 -12.144531 0.445312 Z M -13.613281 0.0898438 C -13.746094 0.0429688 -14.277344 -0.710938 -14.367188 -1.023438 C -14.5 -1.289062 -14.679688 -1.734375 -14.589844 -1.734375 C -14.546875 -1.691406 -14.101562 -1.023438 -13.878906 -0.621094 C -13.613281 -0.132812 -13.523438 0.179688 -13.613281 0.0898438 Z M -13.613281 0.0898438 "/></g></g></g><g fill="#1f2122" fill-opacity="1"><g transform="translate(128.063443, 204.223145)"><g><path d="M -11.964844 1.199219 C -12.097656 1.113281 -12.277344 0.84375 -12.410156 0.667969 L -12.765625 0.179688 C -12.945312 0 -13.078125 -0.265625 -13.523438 -1.199219 L -13.789062 -1.691406 C -13.878906 -1.914062 -13.878906 -1.957031 -13.746094 -2.136719 C -13.613281 -2.402344 -13.65625 -2.757812 -13.878906 -3.378906 L -14.234375 -4.09375 L -14.457031 -4.582031 C -14.5 -4.671875 -14.546875 -4.894531 -14.546875 -4.980469 C -14.546875 -5.117188 -14.589844 -5.203125 -14.679688 -5.335938 C -14.945312 -5.605469 -15.078125 -5.648438 -15.210938 -5.558594 C -15.390625 -5.472656 -15.390625 -5.335938 -15.125 -4.980469 C -15.035156 -4.804688 -14.945312 -4.671875 -14.945312 -4.625 C -14.945312 -4.582031 -14.902344 -4.449219 -14.8125 -4.316406 C -14.546875 -3.914062 -14.144531 -3.023438 -14.144531 -2.757812 C -14.144531 -2.667969 -14.191406 -2.625 -14.324219 -2.578125 C -14.589844 -2.535156 -14.632812 -2.402344 -14.5 -2.136719 C -14.414062 -2.046875 -14.011719 -1.113281 -13.878906 -0.890625 L -13.699219 -0.488281 C -13.613281 -0.355469 -13.789062 -0.488281 -14.101562 -0.84375 C -14.5 -1.289062 -14.769531 -1.378906 -14.855469 -1.113281 C -14.902344 -0.980469 -14.902344 -0.890625 -14.769531 -0.710938 C -14.546875 -0.3125 -13.523438 0.710938 -13.078125 1.066406 L -12.589844 1.46875 C -12.410156 1.601562 -12.234375 1.734375 -12.144531 1.777344 C -11.789062 1.824219 -11.699219 1.421875 -11.964844 1.199219 Z M -11.964844 1.199219 "/></g></g></g><g fill="#1f2122" fill-opacity="1"><g transform="translate(128.063443, 197.284826)"><g/></g></g><g fill="#1f2122" fill-opacity="1"><g transform="translate(128.063443, 179.494273)"><g><path d="M -21.085938 -20.0625 C -21.171875 -19.839844 -21.21875 -19.484375 -21.308594 -18.460938 C -21.394531 -17.527344 -21.664062 -10.632812 -21.664062 -9.785156 L -21.707031 -8.539062 L -21.707031 -7.695312 C -21.886719 -7.828125 -22.328125 -8.230469 -22.550781 -8.496094 C -22.6875 -8.675781 -22.863281 -8.851562 -23.085938 -9.03125 C -23.308594 -9.207031 -23.886719 -9.832031 -24.152344 -10.140625 L -24.507812 -10.585938 L -24.730469 -10.765625 C -24.867188 -10.898438 -24.910156 -10.898438 -25.042969 -10.808594 C -25.132812 -10.765625 -25.175781 -10.675781 -25.175781 -10.632812 C -25.175781 -10.542969 -24.777344 -10.007812 -24.644531 -9.964844 L -24.285156 -9.5625 C -23.886719 -9.074219 -23.84375 -8.984375 -23.707031 -8.894531 C -23.621094 -8.808594 -22.507812 -7.652344 -22.375 -7.472656 L -22.242188 -7.339844 L -21.839844 -6.984375 L -21.664062 -6.804688 L -21.527344 -0.535156 L -21.441406 0.445312 C -21.394531 1.199219 -21.21875 3.335938 -21.128906 3.691406 C -21.039062 4.046875 -20.863281 4.226562 -20.730469 4.09375 C -20.640625 4.046875 -20.730469 3.160156 -20.863281 2.535156 C -20.90625 2.402344 -21.039062 1.335938 -21.085938 0.265625 L -21.171875 -0.84375 L -21.21875 -2.046875 L -21.308594 -3.515625 C -21.351562 -3.914062 -21.351562 -5.425781 -21.351562 -6.40625 C -21.261719 -6.359375 -21.21875 -6.273438 -21.128906 -6.226562 L -21.039062 -6.09375 L -20.863281 -5.960938 L -20.285156 -5.425781 C -19.617188 -4.804688 -17.480469 -2.847656 -16.902344 -2.445312 C -16.902344 -2.445312 -16.058594 -1.734375 -16.101562 -1.734375 C -16.058594 -1.734375 -15.878906 -1.558594 -15.703125 -1.378906 C -15.480469 -1.15625 -15.078125 -0.800781 -13.96875 0.132812 L -13.566406 0.488281 L -13.121094 0.84375 C -12.988281 0.933594 -12.898438 0.980469 -12.898438 1.023438 C -12.898438 1.113281 -12.632812 1.335938 -11.699219 2.046875 C -11.386719 2.3125 -11.121094 2.535156 -11.074219 2.625 C -10.988281 2.667969 -10.453125 3.113281 -9.875 3.601562 L -8.496094 4.714844 L -6.050781 6.539062 C -5.425781 6.984375 -5.070312 7.25 -5.117188 7.339844 L -5.027344 7.339844 C -4.980469 7.339844 -4.894531 7.339844 -4.804688 7.382812 C -4.671875 7.429688 -4.625 7.472656 -4.671875 7.515625 C -4.625 7.515625 -4.582031 7.5625 -4.582031 7.5625 C -4.492188 7.5625 -4.449219 7.5625 -4.449219 7.605469 C -4.492188 7.605469 -4.226562 7.738281 -3.914062 7.828125 C -3.46875 8.007812 -3.292969 8.050781 -3.070312 8.007812 C -2.800781 7.917969 -2.757812 7.875 -2.714844 7.738281 C -2.714844 7.5625 -2.714844 7.472656 -2.800781 7.429688 C -2.9375 7.339844 -2.9375 7.339844 -2.980469 7.515625 C -2.980469 7.695312 -3.023438 7.695312 -3.203125 7.695312 C -3.425781 7.652344 -4.179688 7.296875 -4.671875 6.984375 C -5.917969 6.136719 -8.761719 3.914062 -10.410156 2.492188 L -11.253906 1.777344 L -12.945312 0.3125 L -14.277344 -0.890625 L -14.769531 -1.289062 L -15.347656 -1.824219 C -15.792969 -2.222656 -16.234375 -2.578125 -17.125 -3.335938 C -17.4375 -3.601562 -17.75 -3.914062 -17.882812 -4.046875 C -18.015625 -4.179688 -18.28125 -4.402344 -18.460938 -4.539062 L -19.261719 -5.292969 C -19.792969 -5.78125 -20.0625 -6.09375 -20.417969 -6.359375 L -20.816406 -6.761719 C -20.996094 -6.894531 -21.085938 -7.027344 -21.21875 -7.117188 L -21.351562 -7.339844 C -21.394531 -7.695312 -21.351562 -7.960938 -21.351562 -8.09375 L -21.351562 -8.273438 C -21.308594 -10.855469 -21.128906 -17.035156 -20.996094 -17.925781 C -20.90625 -18.191406 -20.90625 -18.636719 -20.863281 -18.859375 C -20.863281 -19.304688 -20.863281 -19.304688 -20.683594 -19.214844 C -20.59375 -19.128906 -20.507812 -19.171875 -20.460938 -19.214844 C -20.371094 -19.304688 -20.328125 -19.347656 -20.371094 -19.394531 L -20.550781 -19.839844 C -20.773438 -20.328125 -20.90625 -20.371094 -21.085938 -20.0625 Z M -21.085938 -20.0625 "/></g></g></g><g fill="#1f2122" fill-opacity="1"><g transform="translate(128.063443, 175.71378)"><g><path d="M -15.300781 -1.867188 C -15.347656 -2.046875 -15.65625 -2.222656 -15.835938 -2.179688 C -15.925781 -2.179688 -16.011719 -2.089844 -16.058594 -2.046875 C -16.191406 -1.867188 -16.101562 -1.691406 -15.835938 -1.644531 C -15.703125 -1.644531 -15.613281 -1.601562 -15.570312 -1.558594 C -15.480469 -1.421875 -15.210938 -1.691406 -15.300781 -1.867188 Z M -12.097656 0.667969 C -12.144531 0.179688 -12.410156 -0.667969 -12.722656 -1.378906 L -13.613281 -3.335938 L -13.832031 -3.871094 C -13.921875 -4.003906 -14.054688 -4.003906 -14.101562 -3.914062 L -14.144531 -3.824219 L -14.144531 -3.738281 L -14.101562 -3.648438 C -13.253906 -1.691406 -12.722656 -0.355469 -12.589844 0.265625 C -12.589844 0.265625 -12.453125 0.621094 -12.542969 0.800781 C -12.722656 0.800781 -12.898438 0.757812 -13.078125 0.621094 L -13.699219 -0.132812 C -14.144531 -0.667969 -14.367188 -0.800781 -14.457031 -0.578125 C -14.5 -0.488281 -14.367188 -0.132812 -14.144531 0.179688 C -13.476562 0.980469 -13.03125 1.335938 -12.589844 1.335938 L -12.453125 1.335938 C -12.1875 1.335938 -12.054688 1.113281 -12.097656 0.667969 Z M -12.097656 0.667969 "/></g></g></g><g fill="#1f2122" fill-opacity="1"><g transform="translate(128.063443, 171.977764)"><g><path d="M -10.808594 1.023438 L -10.855469 0.800781 C -10.988281 0.445312 -11.566406 -0.398438 -12.367188 -1.378906 C -12.988281 -2.089844 -13.746094 -2.492188 -14.144531 -2.269531 C -14.277344 -2.222656 -14.367188 -2.136719 -14.414062 -1.957031 C -14.457031 -1.644531 -14.277344 -1.199219 -14.011719 -0.621094 L -13.746094 -0.222656 C -13.746094 -0.179688 -13.789062 -0.222656 -13.878906 -0.3125 L -14.945312 -1.246094 C -15.347656 -1.558594 -15.613281 -1.824219 -15.835938 -2.046875 L -15.96875 -2.222656 L -16.058594 -2.359375 L -16.191406 -2.714844 L -16.234375 -2.847656 L -16.28125 -2.890625 L -16.8125 -3.914062 L -17.257812 -4.847656 L -17.613281 -5.558594 C -17.792969 -5.871094 -19.570312 -9.429688 -19.839844 -9.875 L -19.972656 -10.140625 C -20.015625 -10.230469 -20.105469 -10.320312 -20.148438 -10.320312 C -20.195312 -10.320312 -20.238281 -10.410156 -20.285156 -10.496094 L -20.460938 -10.855469 L -20.90625 -11.476562 C -21.039062 -11.699219 -21.351562 -12.097656 -21.574219 -12.367188 L -22.019531 -12.945312 C -22.152344 -13.167969 -22.730469 -13.65625 -23.042969 -13.832031 C -23.351562 -14.011719 -23.621094 -14.011719 -23.796875 -13.832031 C -23.929688 -13.746094 -23.886719 -13.34375 -23.796875 -12.945312 L -23.664062 -12.453125 C -23.621094 -12.234375 -23.488281 -11.832031 -23.398438 -11.652344 L -23.308594 -11.296875 C -22.996094 -10.453125 -22.464844 -9.296875 -21.886719 -8.496094 L -21.617188 -8.007812 L -21.351562 -7.652344 L -20.863281 -6.984375 L -20.015625 -5.871094 L -18.90625 -4.625 L -18.058594 -3.738281 L -16.457031 -2.136719 L -16.058594 -1.113281 L -15.792969 -0.488281 L -15.523438 0.222656 C -15.433594 0.398438 -15.347656 0.535156 -15.300781 0.578125 C -15.167969 0.667969 -15.078125 0.621094 -15.078125 0.445312 C -15.078125 0.222656 -15.390625 -0.621094 -15.523438 -0.84375 C -15.613281 -0.933594 -15.746094 -1.246094 -15.835938 -1.511719 C -15.703125 -1.421875 -15.613281 -1.335938 -15.523438 -1.246094 L -14.992188 -0.757812 L -13.878906 0.222656 C -13.34375 0.710938 -12.675781 1.246094 -12.277344 1.46875 C -12.1875 1.558594 -12.054688 1.558594 -11.964844 1.558594 C -11.832031 1.558594 -11.832031 1.511719 -11.832031 1.421875 L -11.832031 1.335938 C -11.832031 1.199219 -11.875 1.15625 -12.011719 1.066406 C -12.234375 0.980469 -12.675781 0.621094 -12.988281 0.222656 C -13.566406 -0.488281 -14.191406 -1.558594 -14.101562 -1.824219 C -14.101562 -1.914062 -13.832031 -1.957031 -13.613281 -1.867188 C -13.433594 -1.734375 -13.390625 -1.691406 -13.34375 -1.511719 C -13.34375 -1.246094 -12.945312 -0.535156 -12.542969 -0.0429688 C -12.011719 0.621094 -11.386719 1.066406 -11.03125 1.023438 Z M -16.859375 -3.023438 C -16.902344 -3.023438 -16.949219 -3.023438 -16.949219 -3.070312 L -17.4375 -3.558594 C -18.191406 -4.359375 -19.570312 -5.828125 -19.570312 -5.871094 C -19.570312 -5.917969 -19.707031 -6.050781 -19.882812 -6.226562 C -20.417969 -6.804688 -21.351562 -8.140625 -21.929688 -9.117188 C -22.375 -9.917969 -22.863281 -10.988281 -23.085938 -11.699219 L -23.308594 -12.367188 C -23.398438 -12.453125 -23.488281 -13.210938 -23.441406 -13.34375 C -23.441406 -13.390625 -23.351562 -13.476562 -23.308594 -13.476562 C -23.265625 -13.476562 -23.175781 -13.476562 -23.128906 -13.433594 L -22.863281 -13.253906 C -22.730469 -13.121094 -22.550781 -13.03125 -22.550781 -12.988281 L -22.195312 -12.589844 C -21.929688 -12.320312 -21.484375 -11.742188 -21.128906 -11.210938 L -20.238281 -9.875 L -19.707031 -8.894531 L -19.261719 -8.140625 C -19.128906 -7.917969 -18.949219 -7.605469 -18.90625 -7.472656 C -18.859375 -7.339844 -18.769531 -7.117188 -18.683594 -6.9375 L -18.238281 -6.09375 L -17.835938 -5.160156 C -17.75 -4.980469 -17.257812 -4.003906 -17.257812 -3.957031 C -17.257812 -3.914062 -17.125 -3.691406 -16.992188 -3.425781 C -16.859375 -3.160156 -16.8125 -3.023438 -16.859375 -3.023438 Z M -11.296875 0.621094 C -11.296875 0.757812 -12.097656 0.0429688 -12.410156 -0.3125 C -12.675781 -0.710938 -12.988281 -1.246094 -12.988281 -1.378906 C -12.988281 -1.421875 -12.988281 -1.421875 -12.898438 -1.378906 C -12.632812 -1.15625 -11.253906 0.535156 -11.296875 0.621094 Z M -11.296875 0.621094 "/></g></g></g><g fill="#1f2122" fill-opacity="1"><g transform="translate(128.063443, 166.907453)"><g><path d="M -12.144531 0.445312 C -12.234375 -0.0429688 -12.320312 -0.355469 -12.722656 -1.15625 L -13.613281 -3.160156 L -13.878906 -3.738281 C -13.921875 -3.78125 -14.054688 -3.78125 -14.101562 -3.691406 L -14.144531 -3.648438 L -14.144531 -3.515625 L -14.101562 -3.425781 C -13.03125 -0.980469 -12.5 0.488281 -12.589844 0.757812 C -12.632812 0.84375 -12.675781 0.84375 -12.8125 0.710938 C -12.988281 0.621094 -13.03125 0.535156 -13.121094 0.222656 C -13.253906 -0.265625 -13.476562 -0.710938 -14.011719 -1.46875 C -14.5 -2.179688 -14.769531 -2.492188 -14.902344 -2.445312 C -15.167969 -2.359375 -15.125 -1.957031 -14.855469 -1.246094 C -14.546875 -0.355469 -13.746094 0.667969 -13.03125 1.113281 C -12.675781 1.335938 -12.542969 1.378906 -12.367188 1.289062 C -12.054688 1.246094 -12.054688 1.15625 -12.144531 0.445312 Z M -13.613281 0.0898438 C -13.746094 0.0429688 -14.277344 -0.710938 -14.367188 -1.023438 C -14.5 -1.289062 -14.679688 -1.734375 -14.589844 -1.734375 C -14.546875 -1.691406 -14.101562 -1.023438 -13.878906 -0.621094 C -13.613281 -0.132812 -13.523438 0.179688 -13.613281 0.0898438 Z M -13.613281 0.0898438 "/></g></g></g><g fill="#1f2122" fill-opacity="1"><g transform="translate(128.063443, 163.349344)"><g><path d="M -11.964844 1.199219 C -12.097656 1.113281 -12.277344 0.84375 -12.410156 0.667969 L -12.765625 0.179688 C -12.945312 0 -13.078125 -0.265625 -13.523438 -1.199219 L -13.789062 -1.691406 C -13.878906 -1.914062 -13.878906 -1.957031 -13.746094 -2.136719 C -13.613281 -2.402344 -13.65625 -2.757812 -13.878906 -3.378906 L -14.234375 -4.09375 L -14.457031 -4.582031 C -14.5 -4.671875 -14.546875 -4.894531 -14.546875 -4.980469 C -14.546875 -5.117188 -14.589844 -5.203125 -14.679688 -5.335938 C -14.945312 -5.605469 -15.078125 -5.648438 -15.210938 -5.558594 C -15.390625 -5.472656 -15.390625 -5.335938 -15.125 -4.980469 C -15.035156 -4.804688 -14.945312 -4.671875 -14.945312 -4.625 C -14.945312 -4.582031 -14.902344 -4.449219 -14.8125 -4.316406 C -14.546875 -3.914062 -14.144531 -3.023438 -14.144531 -2.757812 C -14.144531 -2.667969 -14.191406 -2.625 -14.324219 -2.578125 C -14.589844 -2.535156 -14.632812 -2.402344 -14.5 -2.136719 C -14.414062 -2.046875 -14.011719 -1.113281 -13.878906 -0.890625 L -13.699219 -0.488281 C -13.613281 -0.355469 -13.789062 -0.488281 -14.101562 -0.84375 C -14.5 -1.289062 -14.769531 -1.378906 -14.855469 -1.113281 C -14.902344 -0.980469 -14.902344 -0.890625 -14.769531 -0.710938 C -14.546875 -0.3125 -13.523438 0.710938 -13.078125 1.066406 L -12.589844 1.46875 C -12.410156 1.601562 -12.234375 1.734375 -12.144531 1.777344 C -11.789062 1.824219 -11.699219 1.421875 -11.964844 1.199219 Z M -11.964844 1.199219 "/></g></g></g><g fill="#1f2122" fill-opacity="1"><g transform="translate(128.063443, 156.411024)"><g><path d="M -10.585938 -1.023438 L -12.054688 -2.222656 C -13.566406 -3.378906 -15.078125 -4.757812 -15.703125 -5.515625 L -16.457031 -6.316406 L -16.949219 -6.9375 L -17.4375 -7.605469 C -17.613281 -7.875 -18.148438 -8.675781 -18.371094 -8.894531 L -18.90625 -9.5625 C -19.261719 -10.097656 -20.238281 -11.296875 -20.730469 -11.742188 C -21.527344 -12.542969 -21.972656 -12.945312 -22.507812 -13.34375 C -22.996094 -13.699219 -23.128906 -13.789062 -23.308594 -13.746094 C -23.574219 -13.699219 -23.53125 -13.476562 -23.265625 -12.988281 C -23.128906 -12.8125 -22.863281 -12.410156 -22.640625 -12.1875 L -22.0625 -11.433594 C -21.796875 -11.03125 -21.085938 -10.273438 -20.371094 -9.609375 C -19.792969 -9.074219 -19.660156 -8.941406 -18.992188 -8.230469 L -18.550781 -7.785156 L -16.769531 -6.050781 C -16.457031 -5.738281 -15.96875 -5.027344 -15.613281 -4.316406 C -15.433594 -3.914062 -15.167969 -3.46875 -15.035156 -3.246094 L -14.589844 -2.535156 L -14.414062 -2.222656 L -14.546875 -2.089844 C -14.945312 -1.777344 -14.902344 -1.289062 -14.414062 -0.398438 C -14.101562 0.179688 -13.167969 1.246094 -12.632812 1.601562 C -12.1875 1.914062 -11.921875 1.777344 -12.097656 1.289062 C -12.234375 0.84375 -12.589844 0.132812 -12.8125 -0.222656 L -12.898438 -0.398438 C -12.898438 -0.445312 -13.03125 -0.621094 -13.167969 -0.84375 L -13.390625 -1.289062 L -13.613281 -1.691406 L -14.546875 -3.203125 C -14.769531 -3.601562 -14.945312 -3.914062 -14.945312 -3.957031 C -14.945312 -3.957031 -14.722656 -3.78125 -14.546875 -3.558594 C -13.96875 -2.980469 -11.03125 -0.621094 -10.855469 -0.621094 C -10.632812 -0.667969 -10.496094 -0.890625 -10.585938 -1.023438 Z M -18.058594 -8.09375 C -17.96875 -7.875 -18.636719 -8.453125 -19.4375 -9.339844 L -20.015625 -9.917969 C -20.417969 -10.230469 -20.730469 -10.542969 -21.085938 -10.941406 L -21.441406 -11.296875 L -21.929688 -11.875 C -22.820312 -13.078125 -22.863281 -13.253906 -22.0625 -12.589844 C -21.527344 -12.1875 -21.261719 -11.875 -20.238281 -10.808594 C -19.882812 -10.410156 -19.4375 -9.875 -19.214844 -9.5625 L -18.636719 -8.851562 Z M -12.765625 0.84375 C -12.765625 0.980469 -13.121094 0.667969 -13.476562 0.265625 L -13.789062 -0.0898438 C -13.832031 -0.132812 -13.921875 -0.265625 -14.011719 -0.488281 L -14.234375 -0.933594 C -14.277344 -1.066406 -14.277344 -1.378906 -14.234375 -1.46875 C -14.144531 -1.558594 -13.878906 -1.335938 -13.699219 -0.980469 C -13.566406 -0.757812 -13.476562 -0.578125 -13.433594 -0.535156 C -13.433594 -0.488281 -13.300781 -0.179688 -13.121094 0.179688 C -12.945312 0.488281 -12.765625 0.800781 -12.765625 0.84375 Z M -12.765625 0.84375 "/></g></g></g><g fill="#1f2122" fill-opacity="1"><g transform="translate(128.063443, 149.339275)"><g><path d="M -12.144531 -0.980469 C -12.097656 -1.15625 -12.097656 -1.335938 -12.144531 -1.511719 L -12.144531 -1.644531 C -12.144531 -1.644531 -12.320312 -2.445312 -12.722656 -3.292969 L -13.878906 -5.828125 C -13.921875 -5.917969 -14.054688 -5.917969 -14.101562 -5.828125 L -14.144531 -5.78125 L -14.144531 -5.648438 L -14.101562 -5.558594 C -13.253906 -3.601562 -12.722656 -2.269531 -12.589844 -1.691406 C -12.589844 -1.691406 -12.410156 -1.113281 -12.589844 -1.066406 C -12.988281 -0.890625 -13.476562 -1.199219 -13.746094 -1.421875 C -13.96875 -1.601562 -14.5 -2.046875 -14.5 -1.511719 C -14.5 -1.421875 -14.546875 -1.289062 -14.589844 -1.289062 C -14.769531 -1.246094 -14.722656 -1.113281 -14.324219 -0.355469 C -13.96875 0.3125 -13.433594 1.15625 -12.988281 1.691406 C -12.8125 1.914062 -12.722656 2 -12.589844 2 C -12.367188 2 -12.320312 1.867188 -12.320312 1.601562 C -12.320312 1.378906 -12.765625 0.488281 -13.03125 0.132812 C -13.34375 -0.222656 -13.65625 -0.800781 -13.613281 -0.800781 L -13.300781 -0.667969 C -13.167969 -0.578125 -12.988281 -0.535156 -12.855469 -0.535156 C -12.675781 -0.488281 -12.542969 -0.488281 -12.367188 -0.621094 C -12.234375 -0.710938 -12.144531 -0.800781 -12.144531 -0.980469 Z M -12.722656 1.511719 L -12.898438 1.246094 C -13.167969 0.980469 -13.65625 0.265625 -13.921875 -0.3125 C -14.191406 -0.757812 -14.191406 -0.84375 -14.101562 -0.84375 C -14.054688 -0.84375 -13.96875 -0.710938 -13.921875 -0.578125 C -13.746094 -0.222656 -13.613281 -0.0429688 -13.523438 0.0429688 C -13.433594 0.132812 -12.988281 0.890625 -12.8125 1.246094 Z M -12.722656 1.511719 "/></g></g></g><g fill="#1f2122" fill-opacity="1"><g transform="translate(128.063443, 143.646297)"><g><path d="M -11.921875 -2.625 L -12.054688 -3.558594 C -12.234375 -4.402344 -12.765625 -5.917969 -12.765625 -5.917969 L -13.03125 -6.539062 L -13.253906 -7.027344 L -13.390625 -7.296875 C -13.566406 -7.652344 -13.566406 -7.695312 -13.699219 -8.050781 C -13.878906 -8.539062 -13.96875 -8.761719 -14.101562 -8.453125 C -14.144531 -8.363281 -14.054688 -8.050781 -13.65625 -7.117188 C -13.390625 -6.449219 -13.03125 -5.515625 -12.898438 -5.070312 C -12.234375 -2.9375 -12.097656 -1.867188 -12.675781 -1.867188 C -12.855469 -1.824219 -13.078125 -1.914062 -13.390625 -2.222656 C -13.789062 -2.578125 -14.546875 -2.578125 -14.054688 -1.914062 C -13.96875 -1.824219 -13.878906 -1.601562 -13.789062 -1.421875 L -13.167969 0 L -13.65625 -0.3125 C -13.921875 -0.445312 -13.921875 -0.445312 -14.101562 -0.3125 C -14.324219 -0.132812 -14.277344 0.0429688 -13.832031 0.355469 L -13.433594 0.667969 C -13.210938 0.757812 -12.675781 1.113281 -12.5 1.289062 L -12.367188 1.289062 C -12.234375 1.378906 -12.054688 1.246094 -12.054688 1.066406 C -12.011719 1.023438 -12.097656 0.890625 -12.144531 0.757812 C -12.410156 0.355469 -13.167969 -1.023438 -13.390625 -1.46875 L -13.390625 -1.511719 L -13.210938 -1.421875 L -13.167969 -1.421875 L -13.03125 -1.335938 C -12.8125 -1.199219 -12.277344 -1.289062 -12.144531 -1.46875 C -11.921875 -1.734375 -11.875 -2.179688 -11.921875 -2.625 Z M -11.921875 -2.625 "/></g></g></g><g fill="#1f2122" fill-opacity="1"><g transform="translate(128.063443, 135.284737)"><g><path d="M -15.300781 -1.867188 C -15.347656 -2.046875 -15.65625 -2.222656 -15.835938 -2.179688 C -15.925781 -2.179688 -16.011719 -2.089844 -16.058594 -2.046875 C -16.191406 -1.867188 -16.101562 -1.691406 -15.835938 -1.644531 C -15.703125 -1.644531 -15.613281 -1.601562 -15.570312 -1.558594 C -15.480469 -1.421875 -15.210938 -1.691406 -15.300781 -1.867188 Z M -12.097656 0.667969 C -12.144531 0.179688 -12.410156 -0.667969 -12.722656 -1.378906 L -13.613281 -3.335938 L -13.832031 -3.871094 C -13.921875 -4.003906 -14.054688 -4.003906 -14.101562 -3.914062 L -14.144531 -3.824219 L -14.144531 -3.738281 L -14.101562 -3.648438 C -13.253906 -1.691406 -12.722656 -0.355469 -12.589844 0.265625 C -12.589844 0.265625 -12.453125 0.621094 -12.542969 0.800781 C -12.722656 0.800781 -12.898438 0.757812 -13.078125 0.621094 L -13.699219 -0.132812 C -14.144531 -0.667969 -14.367188 -0.800781 -14.457031 -0.578125 C -14.5 -0.488281 -14.367188 -0.132812 -14.144531 0.179688 C -13.476562 0.980469 -13.03125 1.335938 -12.589844 1.335938 L -12.453125 1.335938 C -12.1875 1.335938 -12.054688 1.113281 -12.097656 0.667969 Z M -12.097656 0.667969 "/></g></g></g></svg>