<svg xmlns="http://www.w3.org/2000/svg" xmlns:xlink="http://www.w3.org/1999/xlink" width="500" zoomAndPan="magnify" viewBox="0 0 375 374.999991" height="500" preserveAspectRatio="xMidYMid meet" version="1.0"><defs><g/></defs><g fill="#ffffff" fill-opacity="1"><g transform="translate(80.137536, 181.048116)"><g><path d="M 38.121094 0 L 55.882812 0 L 55.882812 -31.914062 C 55.882812 -45.921875 45.34375 -54.585938 29.3125 -46.066406 C 29.3125 -46.066406 38.121094 -46.929688 38.121094 -37.691406 Z M 6.066406 0 L 23.972656 0 L 23.972656 -48.085938 L 6.066406 -48.085938 Z M 6.066406 0 "/></g></g></g><g fill="#ffffff" fill-opacity="1"><g transform="translate(135.44086, 181.048116)"><g><path d="M 31.191406 0 L 48.953125 0 L 48.953125 -31.914062 C 48.953125 -42.453125 39.132812 -52.5625 21.371094 -48.519531 C 21.371094 -48.519531 31.191406 -46.929688 31.191406 -37.691406 Z M 14.152344 -28.882812 C 18.917969 -28.882812 22.960938 -32.78125 22.960938 -37.691406 C 22.960938 -42.453125 18.917969 -46.355469 14.152344 -46.355469 C 9.242188 -46.355469 5.34375 -42.453125 5.34375 -37.691406 C 5.34375 -32.78125 9.242188 -28.882812 14.152344 -28.882812 Z M 18.917969 1.300781 C 21.804688 0.722656 25.558594 -0.433594 27.871094 -2.453125 C 23.539062 -1.589844 19.351562 -4.332031 18.195312 -8.519531 C 16.460938 -15.019531 20.792969 -22.527344 24.40625 -25.558594 C 21.804688 -25.558594 19.496094 -25.414062 17.039062 -24.691406 C 12.273438 -23.105469 7.652344 -20.214844 5.34375 -15.738281 C 2.742188 -11.261719 3.175781 -5.054688 6.929688 -1.15625 C 9.964844 2.023438 14.730469 2.167969 18.917969 1.300781 Z M 18.917969 1.300781 "/></g></g></g><g fill="#ffffff" fill-opacity="1"><g transform="translate(183.957565, 181.048116)"><g><path d="M 23.972656 1.734375 C 34.367188 1.734375 43.320312 -6.210938 43.320312 -14.441406 C 43.320312 -31.769531 16.75 -28.015625 16.75 -41.878906 C 16.75 -44.765625 18.195312 -46.929688 21.226562 -49.242188 C 10.832031 -49.242188 3.609375 -41.300781 3.609375 -34.511719 C 3.609375 -18.484375 29.167969 -21.660156 29.167969 -8.664062 C 29.167969 -4.621094 27.4375 -0.867188 23.972656 1.734375 Z M 30.902344 -34.367188 C 34.945312 -34.367188 38.121094 -37.691406 38.121094 -41.734375 C 38.121094 -45.777344 34.800781 -49.097656 30.902344 -49.097656 C 26.859375 -49.097656 23.539062 -45.777344 23.539062 -41.734375 C 23.539062 -37.691406 26.859375 -34.367188 30.902344 -34.367188 Z M 11.839844 0.867188 C 16.75 0.867188 20.648438 -3.03125 20.648438 -7.941406 C 20.648438 -12.851562 16.75 -16.75 11.839844 -16.75 C 7.074219 -16.75 3.03125 -12.851562 3.03125 -7.941406 C 3.03125 -3.03125 7.074219 0.867188 11.839844 0.867188 Z M 11.839844 0.867188 "/></g></g></g><g fill="#ffffff" fill-opacity="1"><g transform="translate(224.532479, 181.048116)"><g><path d="M 23.972656 1.734375 C 34.367188 1.734375 43.320312 -6.210938 43.320312 -14.441406 C 43.320312 -31.769531 16.75 -28.015625 16.75 -41.878906 C 16.75 -44.765625 18.195312 -46.929688 21.226562 -49.242188 C 10.832031 -49.242188 3.609375 -41.300781 3.609375 -34.511719 C 3.609375 -18.484375 29.167969 -21.660156 29.167969 -8.664062 C 29.167969 -4.621094 27.4375 -0.867188 23.972656 1.734375 Z M 30.902344 -34.367188 C 34.945312 -34.367188 38.121094 -37.691406 38.121094 -41.734375 C 38.121094 -45.777344 34.800781 -49.097656 30.902344 -49.097656 C 26.859375 -49.097656 23.539062 -45.777344 23.539062 -41.734375 C 23.539062 -37.691406 26.859375 -34.367188 30.902344 -34.367188 Z M 11.839844 0.867188 C 16.75 0.867188 20.648438 -3.03125 20.648438 -7.941406 C 20.648438 -12.851562 16.75 -16.75 11.839844 -16.75 C 7.074219 -16.75 3.03125 -12.851562 3.03125 -7.941406 C 3.03125 -3.03125 7.074219 0.867188 11.839844 0.867188 Z M 11.839844 0.867188 "/></g></g></g><g fill="#ffffff" fill-opacity="1"><g transform="translate(265.107393, 181.048116)"><g><path d="M 14.875 1.734375 C 19.640625 1.734375 23.539062 -2.167969 23.539062 -6.929688 C 23.539062 -11.984375 19.640625 -15.738281 14.875 -15.738281 C 9.964844 -15.738281 6.066406 -11.839844 6.066406 -6.929688 C 6.066406 -2.167969 9.964844 1.734375 14.875 1.734375 Z M 14.875 1.734375 "/></g></g></g></svg>